<?xml version="1.0" encoding="UTF-8" standalone="no"?><!DOCTYPE svg PUBLIC "-//W3C//DTD SVG 1.1//EN" "http://www.w3.org/Graphics/SVG/1.1/DTD/svg11.dtd"><svg width="100%" height="100%" viewBox="0 0 630 475" version="1.1" xmlns="http://www.w3.org/2000/svg" xmlns:xlink="http://www.w3.org/1999/xlink" xml:space="preserve" xmlns:serif="http://www.serif.com/" style="fill-rule:evenodd;clip-rule:evenodd;stroke-miterlimit:2;"><g><path d="M140.05,275.7c-10.367,19.371 -22.675,36.604 -31.733,47.775c-19.171,23.638 -37.346,19.563 -50.079,-51.179c-4.576,3.75 -8.855,6.842 -12.821,9.171c-26.5,15.566 -37.621,-9.65 -37.809,-35.925c-0.162,-22.18 1.975,-41.113 10.038,-61.967l-0.925,2.479l61.491,-19.079l22.463,41.962c0.746,2.267 1.954,4.93 3.179,6.996l-7.242,11.867l-6.899,9.596l27.208,-7.313l23.129,45.617Zm38.971,-167.608l27.529,-23.017l-27.529,23.017Z" style="fill:#808285;"/><path d="M146.775,305.621l0.492,0l0,-0.546l36.062,0c8.2,0 10.104,-3.221 10.104,-9.883l0,-243.159c0.063,-11.329 -3.375,-12.162 -13.67,-12.445l-34.93,0l0,-29.771c68.704,0 134.296,-1.58 203.129,-0.959c83.438,0.746 130.205,62.059 140.784,130.992c4.404,0.017 8.821,0.042 13.25,0.079c60.466,0.488 101.1,37.113 101.1,80.671l0,0.004c0,32.921 -26.633,60.5 -55.038,72.904c36.15,12.721 71.075,47.763 71.075,87.959l0,7.287c0,35.308 -39.012,77.204 -85.162,77.204c-77.721,-0.141 -155.442,-0.275 -233.158,-0.416l0,-25.271l0.487,0l0,-0.55l36.067,0c8.191,0 10.1,-3.263 10.1,-10.008l0,-98.717c-76.896,-0.133 -123.434,-0.267 -200.692,-0.404l0,-24.971Zm344.25,-132.563c-0.542,41.063 -13.513,81.842 -38.833,111.684l2.912,0c49.229,-0.004 71.221,-16.584 71.338,-59.829c0.062,-22.771 -11.396,-44.163 -35.417,-51.855Zm-143.558,125.813l0,-115.242c0.058,-11.462 -3.371,-12.312 -13.671,-12.596l-34.934,0l0,-30.133c36.792,0 72.688,-0.433 108.671,-0.754c-4.687,-41.063 -20.312,-78.029 -47.554,-93.692c-11.762,-6.762 -28.996,-10.687 -43.991,-10.483l-26.155,0.35c-13.475,0.25 -17.029,1.85 -17.025,17.083c0,76.229 0.029,148.404 0.038,224.413c0.85,8.745 -2.988,23.641 15.171,23.275c14.291,0.179 26.587,0.533 42.866,0.533c5.85,-0.079 11.371,-1.038 16.584,-2.754Zm80.675,15.504l0,115.696c3.846,2.475 9.429,4.387 16.033,5.633c22.533,4.263 54.254,4.213 74.558,-14.171c36.142,-32.737 19.705,-97.929 -30.004,-105.787c-19.529,-3.092 -41.737,-1.371 -60.587,-1.371Z" style="fill:#672329;"/><path d="M309.146,447.596l-0.467,0.008l0.008,0.542l0,9.567l225.284,0.395l0,-0.025l0,0.025c20.887,0 40.254,-9.571 54.441,-23.175c14.051,-13.47 22.876,-30.67 22.876,-46.179l-0.03,0l0,-7.287c0,-26.188 -16.687,-50.179 -38.471,-66.03c-4.333,-3.145 -8.812,-5.949 -13.366,-8.362c-4.613,-2.446 -9.292,-4.513 -13.942,-6.15l-0.029,0l-0.008,0l-0.521,-14.617c17.529,-7.662 34.291,-21.516 43.4,-38.85c1.754,-3.337 3.204,-6.741 4.3,-10.187c1.692,-5.333 2.629,-10.909 2.629,-16.659l-0.029,0l0,-0.008l0,-0.004l0.029,0c0,-28.004 -19.092,-52.921 -50.242,-65.008c-6.225,-2.421 -12.925,-4.329 -20.046,-5.655c-7.212,-1.337 -14.829,-2.083 -22.783,-2.158l-0.242,-0.004c-39.562,-0.317 -78.083,0.054 -116.741,0.425c-27.129,0.263 -54.325,0.521 -78.454,0.575l0,14.379l27.054,0l0.216,0.029c6.767,0.192 11.417,0.667 15.367,3.771c4.279,3.363 5.971,8.246 5.933,16.675l0.034,0l0,246.084c0,5.258 -0.975,9.408 -4.042,12.795c-3.087,3.413 -7.437,5.088 -13.937,5.088l-28.221,0Zm-154.004,-134.642l-0.484,0.004l-0.004,0.542l0,9.258c35.329,0.063 64.342,0.121 93.371,0.192c28.504,0.063 57.029,0.121 91.563,0.188l0,-14.342c-2.796,0.408 -5.667,0.637 -8.613,0.675l-0.092,0.033c-9.196,0 -19.17,-0.175 -29.141,-0.35c-4.538,-0.075 -9.075,-0.154 -13.684,-0.217c-22.833,0.417 -22.87,-13.97 -22.9,-26.049c-0.004,-1.571 -0.012,-3.071 -0.125,-4.288l-0.004,-0.046l-0.033,-0.737c0,-36.355 -0.008,-71.829 -0.017,-107.288c-0.004,-38.683 -0.016,-77.354 -0.021,-117.125c0,-14.337 2.863,-20.333 12.009,-23.375c3.458,-1.146 7.516,-1.454 12.741,-1.554l0.029,0l26.159,-0.35c11.671,-0.158 24.554,1.975 35.571,5.888c2.212,0.779 4.345,1.633 6.379,2.545c2.108,0.95 4.091,1.95 5.929,3.004l0.108,0.063l0,0.033c27.942,16.063 44.571,52.054 50.513,92.575c21.533,-0.175 43.121,-0.308 64.992,-0.262c-1.721,-8.413 -4.013,-16.663 -6.875,-24.638c-18.151,-50.458 -59.613,-90.046 -124.605,-90.633c-39.916,-0.354 -78.77,0.025 -117.779,0.408c-26.758,0.263 -53.579,0.525 -77.416,0.579l0,14.026l27.05,0l0.183,0.029c6.783,0.187 11.433,0.654 15.371,3.708c4.3,3.342 6,8.2 5.962,16.583l0.034,0l0,243.159c0,5.229 -0.984,9.362 -4.071,12.733c-3.088,3.371 -7.43,5.029 -13.913,5.029l-28.187,0Zm184.446,25.875c-34.534,-0.062 -63.059,-0.125 -91.563,-0.191c-31.163,-0.063 -62.296,-0.134 -101.25,-0.2l-7.875,-0.013l0,-7.833c0,-11.679 -0.079,-22.038 -0.079,-33.309l8.446,-0.087l36.062,0c1.721,0 2.254,0.237 2.342,0.141c0.087,-0.091 -0.113,-0.712 -0.113,-2.145l0,-243.159l0.025,-0.029c0.017,-2.925 0.1,-4.096 0.071,-4.121c-0.333,-0.258 -2.479,-0.346 -5.891,-0.441l0,0.025l-34.93,0l-7.875,0l0,-7.879l0,-29.771l0,-7.879l7.875,0c31.888,0 58.571,-0.263 85.175,-0.526c39.063,-0.383 77.975,-0.766 118.017,-0.404c72.704,0.654 119.029,44.788 139.25,101.03c3.487,9.695 6.187,19.75 8.108,29.999c2.225,0.013 4.45,0.026 6.675,0.042l0.238,0.008c8.954,0.084 17.467,0.913 25.492,2.405c8.12,1.508 15.766,3.687 22.883,6.45c37.371,14.504 60.275,45.041 60.275,79.658l0.029,0l0,0.012l-0.029,0c-0.004,7.409 -1.2,14.571 -3.371,21.392c-1.421,4.471 -3.221,8.738 -5.342,12.775c-8.166,15.534 -21.375,28.667 -36.179,38.025l0.696,0.363c5.279,2.804 10.404,5.996 15.267,9.537c25.479,18.529 44.996,47.071 44.996,78.763l0,7.287l-0.034,0c0,19.808 -10.679,41.204 -27.675,57.504c-16.858,16.167 -40.071,27.546 -65.333,27.546l0,0.029l0,-0.029l-233.158,-0.412l-7.88,-0.017l0,-7.833l0,-25.271l-0.062,-8.425l44.496,0c1.695,0 2.221,0.237 2.304,0.137c0.066,-0.071 -0.083,-0.779 -0.083,-2.27l0,-90.884Zm0,-45.979l0,-109.221l0.029,-0.033c0.016,-3.013 0.041,-4.263 0.037,-4.271c-0.316,-0.25 -2.454,-0.346 -5.858,-0.442l0,0.025l-34.934,0l-7.874,0l0,-7.875l0,-30.133l0,-7.871l7.874,0c32.317,0 59.301,-0.266 86.209,-0.521l13.525,-0.129c-5.438,-35.208 -19.446,-65.846 -42.509,-79.112l-0.016,0.016l-0.113,-0.062c-1.458,-0.834 -2.991,-1.609 -4.57,-2.325c-1.65,-0.738 -3.367,-1.421 -5.151,-2.054c-9.404,-3.338 -20.32,-5.155 -30.158,-5.025l-26.125,0.35l0,0.004c-3.754,0.067 -6.475,0.229 -8.066,0.754c-0.942,0.312 -1.234,2.513 -1.234,8.479c0,39.771 0.009,78.442 0.017,117.125c0.008,35.329 0.021,70.667 0.021,106.879c0.146,1.754 0.154,3.58 0.158,5.48c0.013,4.791 0.025,10.499 7.013,10.358l0.25,0c4.87,0.062 9.37,0.141 13.879,0.216c8.187,0.142 16.379,0.288 28.891,0.288l0,0.029c2.996,-0.046 5.896,-0.362 8.705,-0.929Zm96.145,-15.954l12.73,0c10.049,-12.483 17.92,-26.846 23.6,-42.275c6.458,-17.558 10.116,-36.45 10.97,-55.513c-2.421,-0.491 -4.971,-0.837 -7.654,-1.025l-0.025,-0.004c-1.958,-0.137 -3.725,-0.216 -5.262,-0.242c-1.688,-0.029 -3.442,-0.008 -5.246,0.067c-8.733,0.363 -17.358,2.079 -25.175,5.783c-1.283,0.605 -2.484,1.255 -3.642,1.934l-0.412,0.241l0.116,91.034Zm32.675,-0.475c15.888,-1.229 27.734,-4.871 35.796,-11.471c9.729,-7.967 14.338,-20.95 14.388,-40.037l0,-0.655c-0.03,-3.304 -0.334,-6.591 -0.925,-9.808c-0.575,-3.112 -1.438,-6.171 -2.592,-9.129c-3.204,-8.192 -8.725,-15.321 -16.663,-20.25c-1.32,18.925 -5.179,37.567 -11.583,54.962c-4.754,12.929 -10.9,25.184 -18.421,36.388Zm-13.304,16.162l-27.208,0l-7.833,0l-0.013,-7.841l-0.133,-103.242l-0.009,-4.296l3.638,-2.317c1.554,-0.991 3.071,-1.941 4.541,-2.8c1.676,-0.987 3.313,-1.874 4.876,-2.616c9.837,-4.659 20.537,-6.813 31.27,-7.259c1.971,-0.083 4.013,-0.104 6.105,-0.07c2.249,0.041 4.266,0.12 6.062,0.245l0.029,0c27.963,1.955 45.492,17.251 53.288,37.213c1.495,3.825 2.625,7.85 3.395,12.021c0.746,4.067 1.138,8.262 1.176,12.516l0,0.776c-0.063,24.154 -6.513,41.083 -20.113,52.22c-13.158,10.775 -32.583,15.45 -59.071,15.45Zm-19.087,29.567l0,103.138c2.695,1.1 5.95,2 9.604,2.691c1.175,0.221 0.175,0.046 0.896,0.179c2.916,0.53 6.066,0.988 9.412,1.338c3.333,0.346 6.708,0.575 10.05,0.646c16.804,0.337 34.892,-3.013 47.496,-14.425c9.179,-8.317 14.45,-19.071 16.221,-30.292c1.316,-8.321 0.733,-16.892 -1.579,-24.925c-2.3,-7.983 -6.313,-15.433 -11.867,-21.567c-7.113,-7.85 -16.808,-13.55 -28.725,-15.433l-0.029,0l-0.021,-0.004l0,-0.004c-13.813,-2.18 -29.425,-1.829 -44.075,-1.5c-2.537,0.058 -5.05,0.112 -7.383,0.158Zm-15.754,107.921l0,-115.696l0,-7.879l7.879,0c6.083,0 10.462,-0.096 14.954,-0.196c15.308,-0.342 31.629,-0.708 46.808,1.687l0.029,0l0.025,0.005l-0.004,0.004c15.721,2.496 28.521,10.029 37.925,20.417c7.179,7.929 12.363,17.52 15.313,27.774c2.941,10.205 3.683,21.084 2.012,31.638c-2.308,14.612 -9.196,28.642 -21.208,39.521c-16.108,14.592 -38.146,18.9 -58.321,18.487c-3.95,-0.079 -7.75,-0.329 -11.35,-0.704c-3.587,-0.379 -7.142,-0.904 -10.579,-1.525c-1.363,-0.241 -0.475,-0.071 -1.021,-0.175c-5.371,-1.017 -10.204,-2.446 -14.183,-4.242c-0.675,-0.304 -1.463,-0.695 -2.375,-1.183c-0.9,-0.483 -1.659,-0.921 -2.267,-1.312l0.004,-0.005l-3.641,-2.3l0,-4.316Z" style="fill:#939598;fill-rule:nonzero;"/><path d="M275.829,184.175l-92.733,27.338l0,35.483l102.021,-17.779l0,-17.971l-98.13,17.091l98.13,-28.924l0,-15.238l0.075,0l0,-17.975l-89.096,0l89.021,-11l0,-17.975l-102.021,12.6l0,16.375l-0.338,0l0,17.975l93.071,0Zm9.242,-65.592l-77.221,-8.116l77.1,-3.88l0,-17.975l-104.771,5.263l0,13.675l-0.15,-0.017l0,17.979l105.042,11.046l0,-17.975Zm-0.034,143.171l-102.912,-11.846l0,17.979l50.654,5.826l-49.683,0l0,17.979l56.4,0l-12.475,16.566l22.333,0l11.867,-16.566l23.896,0l0,-17.979l-0.08,0l0,-11.959Z" style="fill:#a7a9ac;"/><path d="M285.388,183.988l-9.538,0l-37.55,11.124l-55,16.213l0,17.975l92.517,-26.917l9.512,-3.158l0.059,-15.237Z" style="fill:#fff;"/><path d="M285.388,183.988l-9.538,0l-37.55,11.124l-55,16.213l0,17.975l92.517,-26.917l9.512,-3.158l0.059,-15.237Z" style="fill:none;stroke:#231f20;stroke-width:0.9px;"/><path d="M285.4,166.008l-15.413,0l-31.804,0l-42.433,0l-12.783,1.938l0,16.037l27.041,0.309l23.467,-0.309l51.925,0l0,-17.975Z" style="fill:#fff;"/><path d="M285.4,166.008l-15.413,0l-31.804,0l-42.433,0l-12.783,1.938l0,16.037l27.041,0.309l23.467,-0.309l51.925,0l0,-17.975Z" style="fill:none;stroke:#231f20;stroke-width:0.9px;"/><path d="M285.158,88.429l-15.762,0.788l-32.529,1.633l-56.48,2.837l0,13.659l27.784,2.967l23.879,-1.246l43.313,-2.113l9.795,-0.554l0,-17.971Z" style="fill:#fff;"/><path d="M285.158,88.429l-15.762,0.788l-32.529,1.633l-56.48,2.837l0,13.659l27.784,2.967l23.879,-1.246l43.313,-2.113l9.795,-0.554l0,-17.971Z" style="fill:none;stroke:#231f20;stroke-width:0.9px;"/><path d="M239.754,291.504l-1.883,2.492l-3.892,5.141l-6.75,8.934l22.334,0l11.92,-16.558l-21.729,-0.009Z" style="fill:#fff;"/><path d="M239.754,291.504l-1.883,2.492l-3.892,5.141l-6.75,8.934l22.334,0l11.92,-16.558l-21.729,-0.009Z" style="fill:none;stroke:#231f20;stroke-width:0.9px;"/><path d="M285.329,279.588l-53.212,-5.509l-48.817,-0.55l0,17.975l26.917,0.309l23.396,-0.309l51.716,0l0,-11.916Z" style="fill:#fff;"/><path d="M285.329,279.588l-53.212,-5.509l-48.817,-0.55l0,17.975l26.917,0.309l23.396,-0.309l51.716,0l0,-11.916Z" style="fill:none;stroke:#231f20;stroke-width:0.9px;"/><path d="M285.25,261.571l-15.488,-1.784l-31.954,-3.679l-55.479,-6.387l0,17.975l60.588,7.887l42.333,3.963l0.021,-14.571l-0.021,-3.404Z" style="fill:#fff;"/><path d="M285.25,261.571l-15.488,-1.784l-31.954,-3.679l-55.479,-6.387l0,17.975l60.588,7.887l42.333,3.963l0.021,-14.571l-0.021,-3.404Z" style="fill:none;stroke:#231f20;stroke-width:0.9px;"/><path d="M285.283,118.396l-15.808,-1.663l-32.617,-3.429l-56.616,-5.954l0,17.975l27.862,3.787l23.933,1.659l43.421,4.437l9.825,1.163l0,-17.975Z" style="fill:#fff;"/><path d="M285.283,118.396l-15.808,-1.663l-32.617,-3.429l-56.616,-5.954l0,17.975l27.862,3.787l23.933,1.659l43.421,4.437l9.825,1.163l0,-17.975Z" style="fill:none;stroke:#231f20;stroke-width:0.9px;"/><path d="M285.329,211.054l-15.354,2.675l-31.675,5.521l-55,9.583l0,17.975l26.917,-5.308l23.396,-3.458l42.204,-7.142l9.512,-1.867l0,-17.979Z" style="fill:#fff;"/><path d="M285.329,211.054l-15.354,2.675l-31.675,5.521l-55,9.583l0,17.975l26.917,-5.308l23.396,-3.458l42.204,-7.142l9.512,-1.867l0,-17.979Z" style="fill:none;stroke:#231f20;stroke-width:0.9px;"/><path d="M285.329,137.042l-15.354,1.891l-31.675,3.913l-55,6.796l0,17.975l26.917,-3.675l23.396,-2.542l42.204,-5.063l9.512,-1.324l0,-17.971Z" style="fill:#fff;"/><path d="M285.329,137.042l-15.354,1.891l-31.675,3.913l-55,6.796l0,17.975l26.917,-3.675l23.396,-2.542l42.204,-5.063l9.512,-1.324l0,-17.971Z" style="fill:none;stroke:#231f20;stroke-width:0.9px;"/><path d="M209.133,84.05c-31.454,37.563 -40.145,67.65 -49.687,135.996c-2.184,18.458 -10.121,38.158 -19.7,56.021l-23.117,-45.604l-27.287,7.329l7.191,-9.992c8.075,-13.233 16.142,-26.475 24.213,-39.713c6.946,-12.429 13.887,-24.862 20.829,-37.295c9.525,-11.617 19.05,-23.242 28.575,-34.867c11.946,-10.008 23.892,-20.017 35.837,-30.029l3.146,-1.846Z" style="fill:#fff;"/><path d="M323.442,7.121c-8.138,5.271 -16.338,10.587 -24.559,15.921c-7.7,1.162 -15.521,2.608 -23.425,4.308c10.167,-7.325 19.613,-15.004 29.917,-23.458l18.067,3.229Z" style="fill:#fff;"/><path d="M255.325,56.837l4.229,-2.483c36.209,-21.158 54.084,-21.092 97.225,-19.254c0.325,-4.492 0.65,-8.983 0.967,-13.479c-33.8,-4.117 -77.538,3.008 -122.675,16.975l20.254,18.241Z" style="fill:#fff;"/><path d="M51.912,136.608c-14.408,12.763 -26.541,26.959 -34.362,47.517c-0.329,0.854 -0.642,1.7 -0.95,2.533l61.283,-17.016l25.3,46.046l16.788,-27.526c21.142,-42.983 45.979,-72.808 84.712,-101.558l34.9,-20.512l-27.829,-19.7c-61.237,22.037 -120.817,55.65 -159.842,90.216Z" style="fill:#fff;"/><path d="M156.033,142.879c-29.629,53.279 -49.712,113.034 -65.1,175.383" style="fill:none;stroke:#231f20;stroke-width:4.17px;"/><path d="M81.704,307.092l13.113,-3.892l5.346,7.771" style="fill:none;stroke:#231f20;stroke-width:4.17px;"/><path d="M83.158,288.625l17.979,-8.254l11.659,12.142" style="fill:none;stroke:#231f20;stroke-width:4.17px;"/><path d="M85.104,264.333l24.292,-12.146l13.116,19.926" style="fill:none;stroke:#231f20;stroke-width:4.17px;"/><path d="M126.404,204.092l12.625,31.579" style="fill:none;stroke:#231f20;stroke-width:4.17px;"/><path d="M137.088,179.8l5.829,25.262" style="fill:none;stroke:#231f20;stroke-width:4.17px;"/><path d="M125.7,206.863l-16.592,8.641" style="fill:none;stroke:#231f20;stroke-width:4.17px;"/><path d="M127.371,118.1l-1.946,25.267" style="fill:none;stroke:#231f20;stroke-width:4.17px;"/><path d="M81.217,128.792l42.996,-8.021" style="fill:none;stroke:#231f20;stroke-width:4.17px;"/><path d="M65.313,153.35l36.308,-10.958l5.342,27.208" style="fill:none;stroke:#231f20;stroke-width:4.17px;"/><path d="M214.821,59.312c-16.779,9.676 -34.996,19.6 -49.767,29.826c-31.279,21.641 -55.921,43.637 -77.271,68.358c-20.696,23.962 -38.383,50.546 -50.55,78.204c-6.016,13.667 -9.487,30.171 -13.341,44.671" style="fill:none;stroke:#231f20;stroke-width:4.17px;"/><path d="M23.404,205.55l46.638,-26.233l0,34.979" style="fill:none;stroke:#231f20;stroke-width:4.17px;"/><path d="M22.433,232.275l23.805,-16.037l7.283,19.433" style="fill:none;stroke:#231f20;stroke-width:4.17px;"/><path d="M19.029,254.617l14.575,-10.2l9.717,17.004" style="fill:none;stroke:#231f20;stroke-width:4.17px;"/><path d="M123.483,100.608l26.725,-0.483" style="fill:none;stroke:#231f20;stroke-width:4.17px;"/><path d="M148.258,101.167l-0.995,20.608" style="fill:none;stroke:#231f20;stroke-width:4.17px;"/><path d="M54.271,139.275c-7.021,6.212 -13.492,12.792 -19.163,20.317c-4.654,6.17 -8.754,12.995 -12.179,20.808l54.238,-16.829l2.795,-0.867l1.392,2.596l22.467,41.967l0.133,0.316l12.929,-21.2c10.671,-21.654 22.28,-40.02 36.113,-56.612c4.125,-4.95 8.441,-9.729 12.987,-14.396l1.409,-1.708l0.466,-0.475l1.779,-1.488c9.821,-9.683 20.692,-18.879 32.926,-27.962c1.116,-0.729 2.133,-1.275 3.283,-1.95l27.192,-15.979l-21.817,-15.446c-7.858,2.862 -15.771,5.946 -23.692,9.229c-8.412,3.496 -16.737,7.179 -24.912,11.029c-42.063,19.796 -80.517,43.996 -108.346,68.65Zm201.508,-86.825l1.979,-1.163l0,-0.016c18.492,-10.809 32.379,-16.209 47.225,-18.684c13.925,-2.324 28.492,-2.012 48.492,-1.187l0.475,-6.604c-3.646,-0.359 -7.354,-0.592 -11.125,-0.704c-4.988,-0.138 -10.171,-0.075 -15.525,0.179c-25.808,1.233 -55.062,6.979 -85.15,15.9l13.629,12.279Zm69.6,-42.35l-12.525,8.125c4.8,-0.492 9.504,-0.85 14.113,-1.071c5.483,-0.258 10.841,-0.321 16.05,-0.171c5.27,0.15 10.308,0.513 15.083,1.088l0.012,0l0.067,0.008l3.363,0.417l-0.242,3.379l-0.958,13.475l-0.246,3.454l-3.45,-0.15c-21.346,-0.908 -36.429,-1.379 -50.492,0.963c-13.929,2.325 -27.096,7.47 -44.8,17.816l-0.004,-0.008l-4.225,2.483l-2.25,1.325l-1.933,-1.741l-20.25,-18.246l-4.659,-4.2l5.992,-1.854c13.338,-4.129 26.567,-7.663 39.458,-10.496l-0.1,-0.234c5.075,-3.654 9.929,-7.374 14.775,-11.208c4.813,-3.804 9.771,-7.858 14.959,-12.112l1.283,-1.055l1.604,0.288l18.063,3.225l1.312,6.5Zm-27.783,9.533l16.325,-10.591l-7.571,-1.355c-4.658,3.821 -9.175,7.496 -13.783,11.146c-0.867,0.692 -1.742,1.375 -2.617,2.055l1.796,-0.309c0.733,-0.129 1.883,-0.317 3.283,-0.541l2.567,-0.405Zm-154.413,257.759l-0.008,0.016l-0.004,-0.004c-1.517,2.838 -3.025,5.533 -4.504,8.1c-1.475,2.554 -3.034,5.159 -4.655,7.767c-8.041,13.008 -16.345,24.321 -22.937,32.45c-10.95,13.5 -21.921,18.85 -32.458,10.316c-8.667,-7.012 -16.446,-24.733 -22.788,-57.308c-0.725,0.542 -1.442,1.075 -2.154,1.579c-2.15,1.546 -4.308,2.959 -6.463,4.225c-6.15,3.613 -11.654,5.238 -16.524,5.267c-4.342,0.029 -8.142,-1.179 -11.421,-3.354c-3.167,-2.113 -5.813,-5.113 -7.95,-8.759c-4.888,-8.316 -7.18,-20.162 -7.267,-32.133c-0.079,-11.296 0.421,-21.758 1.967,-32.025c1.083,-7.196 2.683,-14.329 4.954,-21.608l-0.142,0.037l0.142,-0.387l-0.121,0.033l2.304,-6.158c0.379,-1.046 0.767,-2.1 1.171,-3.154l0.096,0.033c4.004,-10.379 9.087,-19.192 14.996,-27.033c5.95,-7.896 12.754,-14.809 20.141,-21.342c28.35,-25.117 67.392,-49.704 110.017,-69.771c8.296,-3.904 16.717,-7.637 25.217,-11.162c8.412,-3.492 17.012,-6.821 25.737,-9.963l0.013,-0.016l0.021,-0.009l1.729,-0.608l1.508,1.067l27.833,19.7l4.492,3.183l-4.742,2.791l-29.8,17.513c-15.279,18.312 -25.054,34.817 -32.15,55c-7.2,20.471 -11.712,44.867 -16.45,78.775l0.005,0l-0.013,0.067l0,0.016c-0.308,2.675 -0.746,5.371 -1.288,8.08c-0.537,2.704 -1.179,5.429 -1.912,8.149c-3.533,13.113 -9.233,26.405 -15.771,38.863l0.063,0.129l-0.884,1.638Zm-86.762,-8.217l30.154,-33.283l-0.121,-0.175l7.084,-9.842l5.874,-9.642l-23.295,-44.462l-56.892,17.858c-2.933,8.438 -4.904,16.638 -6.154,24.963c-1.496,9.962 -1.984,20.062 -1.904,30.933c0.075,10.821 2.066,21.375 6.287,28.567c1.596,2.72 3.509,4.921 5.75,6.408c2.133,1.417 4.617,2.208 7.454,2.188c3.646,-0.03 7.946,-1.346 12.959,-4.292c1.812,-1.063 3.787,-2.367 5.904,-3.888c2.079,-1.487 4.229,-3.15 6.454,-4.975l0.446,-0.358Zm35.237,-28.308l-29.583,32.654c6.125,33.233 13.283,50.721 21.033,56.996c6.525,5.279 14.229,0.841 22.446,-9.288c6.442,-7.946 14.554,-19 22.408,-31.7c1.48,-2.387 2.996,-4.921 4.542,-7.6c1.125,-1.95 2.229,-3.896 3.271,-5.808l-21.008,-41.463l-23.109,6.209Zm16.313,-24.975l0.037,0.07l-1.116,1.826l-7.242,11.87l-0.15,0.221l-1.062,1.479l17.57,-4.716l2.784,-0.754l1.316,2.595l19.921,39.3c5.321,-10.662 9.888,-21.833 12.854,-32.862c0.692,-2.571 1.3,-5.134 1.8,-7.675c0.509,-2.534 0.917,-5.058 1.209,-7.55l0.004,0l0.008,-0.054l0.009,-0.084c4.808,-34.391 9.404,-59.196 16.8,-80.225c4.487,-12.766 9.979,-24.095 17.137,-35.266l-15.542,13.021c-0.954,0.945 -1.9,1.895 -2.837,2.85l-26.971,32.916l-20.637,36.963l-0.076,0.125l-15.816,25.95Z" style="fill:#231f20;fill-rule:nonzero;"/></g></svg>